<?xml version="1.0" standalone="no"?>
<!DOCTYPE svg PUBLIC "-//W3C//DTD SVG 20010904//EN"
 "http://www.w3.org/TR/2001/REC-SVG-20010904/DTD/svg10.dtd">
<svg version="1.0" xmlns="http://www.w3.org/2000/svg"
 width="700.000000pt" height="700.000000pt" viewBox="0 0 700.000000 700.000000"
 preserveAspectRatio="xMidYMid meet">
<metadata>
Created by potrace 1.14, written by Peter Selinger 2001-2017
</metadata>
<g transform="translate(0.000000,700.000000) scale(0.100000,-0.100000)"
fill="#000000" stroke="none">
<path d="M1933 6967 c-51 -78 -100 -164 -106 -189 -4 -16 -21 -49 -37 -75 -17
-26 -30 -52 -30 -59 0 -7 -4 -14 -8 -16 -8 -3 -55 -98 -82 -163 -8 -21 -47
-108 -62 -137 -4 -10 -8 -26 -8 -35 -1 -10 -14 -43 -30 -73 -17 -30 -30 -63
-30 -72 0 -14 -6 -16 -30 -12 -80 16 -555 -76 -669 -129 -56 -26 -73 -65 -100
-217 -33 -187 -35 -223 -17 -257 29 -56 80 -57 213 -4 153 61 446 152 453 142
3 -6 4 -28 2 -50 -4 -41 -17 -51 -73 -51 -14 0 -28 -3 -32 -6 -3 -4 -24 -8
-47 -9 -23 -2 -46 -8 -53 -13 -7 -5 -40 -15 -74 -22 -70 -14 -76 -22 -74 -97
3 -73 82 -229 144 -284 l29 -26 -96 -95 c-53 -53 -96 -99 -96 -102 0 -6 -18
-27 -70 -82 -17 -17 -30 -36 -30 -41 0 -6 -6 -16 -14 -22 -7 -6 -16 -25 -20
-42 -6 -34 -102 -130 -122 -122 -7 2 -15 -5 -19 -16 -3 -12 -12 -21 -20 -21
-7 0 -20 -6 -27 -12 -18 -17 -49 -37 -68 -44 -8 -3 -27 -12 -42 -20 -14 -8
-35 -14 -46 -14 -11 0 -25 -7 -32 -15 -7 -8 -22 -15 -34 -15 -12 0 -27 -5 -34
-12 -7 -7 -12 -9 -12 -6 0 4 -33 -2 -72 -13 -77 -22 -153 -39 -178 -41 -46 -4
-57 -67 -19 -112 57 -67 151 -146 175 -146 4 0 15 -6 23 -14 9 -8 45 -24 81
-36 36 -12 70 -26 76 -31 7 -5 44 -16 83 -23 40 -8 74 -16 77 -19 3 -2 -4 -31
-14 -63 -11 -33 -27 -88 -37 -124 -9 -36 -20 -72 -23 -80 -3 -8 -6 -19 -7 -25
-1 -5 -3 -12 -4 -15 -2 -3 -4 -14 -6 -25 -3 -11 -6 -31 -9 -45 -18 -92 -28
-152 -32 -200 -2 -30 -7 -61 -9 -68 -3 -8 -8 -37 -11 -65 -3 -29 -8 -59 -10
-67 -6 -17 -11 -59 -19 -175 -3 -44 -8 -93 -10 -110 -3 -16 -7 -78 -9 -138 -3
-59 -8 -112 -11 -117 -3 -6 -3 -14 0 -20 3 -5 0 -10 -8 -10 -16 0 -47 -41 -47
-61 0 -24 -141 -179 -162 -179 -5 0 -19 -11 -32 -25 -13 -14 -27 -25 -31 -25
-4 0 -19 -9 -35 -20 -15 -11 -30 -16 -34 -12 -4 3 -10 2 -14 -5 -4 -6 -28 -20
-54 -32 -42 -19 -48 -25 -48 -51 0 -43 17 -41 145 22 88 44 103 53 129 77 12
11 25 21 29 21 9 0 101 94 127 130 12 17 25 29 28 26 3 -3 7 -52 8 -108 2 -57
8 -135 14 -173 5 -39 7 -81 3 -93 -3 -12 -1 -22 5 -22 6 0 13 -21 17 -48 8
-63 45 -189 68 -232 33 -60 58 -80 101 -80 37 0 105 18 116 31 3 3 12 9 20 13
15 7 25 13 90 54 47 30 56 28 85 -17 27 -40 61 -61 98 -61 25 0 109 28 117 39
3 4 32 16 64 26 56 19 106 54 106 75 0 15 9 12 33 -11 12 -12 42 -31 67 -42
25 -11 47 -23 50 -26 8 -10 131 -58 170 -66 19 -4 40 -11 45 -15 9 -6 110 -34
200 -56 17 -4 32 -8 35 -9 88 -27 194 -48 290 -59 30 -4 59 -11 64 -16 7 -7 6
-10 -2 -10 -11 0 -67 -35 -82 -50 -3 -3 -32 -23 -65 -45 -68 -44 -201 -175
-211 -208 -4 -12 -11 -25 -15 -28 -5 -3 -11 -29 -13 -57 l-5 -52 35 28 c19 15
34 34 34 42 0 37 68 122 145 181 71 56 227 159 239 159 6 0 24 7 39 15 22 11
39 12 70 6 23 -5 58 -9 77 -10 19 0 51 -2 70 -5 19 -3 50 -5 68 -5 34 -1 43
-16 14 -25 -9 -3 -32 -18 -49 -33 -63 -56 -82 -71 -98 -76 -8 -4 -19 -17 -24
-30 -5 -14 -16 -27 -25 -30 -23 -9 -58 -97 -51 -128 8 -36 59 -55 107 -41 18
6 60 18 93 29 33 10 65 18 70 19 6 0 17 4 25 7 18 8 242 75 288 87 17 4 32 5
32 1 0 -3 4 -1 8 4 4 6 54 23 112 38 58 15 143 39 190 53 47 14 105 30 129 35
24 5 49 13 55 18 6 4 29 14 51 21 78 24 156 63 151 75 -5 15 15 25 113 60 45
15 78 22 83 17 5 -5 11 -25 13 -43 7 -81 47 -119 125 -119 66 0 37 -17 -41
-24 -133 -14 -203 -52 -265 -145 -38 -57 -41 -63 -49 -81 -3 -8 -19 -40 -35
-70 -15 -30 -27 -56 -26 -58 2 -1 65 14 140 34 75 20 139 34 142 31 3 -3 8
-53 11 -110 l6 -104 -49 -17 c-27 -8 -107 -29 -179 -46 -71 -17 -137 -33 -147
-36 -9 -3 -19 -17 -24 -32 -9 -32 -9 -32 -17 -52 -9 -25 -18 -90 -12 -90 4 0
99 36 211 81 113 45 206 79 208 77 6 -9 -12 -220 -20 -227 -10 -10 -316 -103
-401 -122 -40 -10 -53 -17 -53 -31 0 -10 -4 -18 -10 -18 -5 0 -10 -11 -10 -25
0 -14 -4 -25 -9 -25 -5 0 -12 -9 -16 -19 -5 -17 -19 -25 -65 -37 -86 -23 -294
-25 -480 -4 -58 7 -121 13 -140 15 -92 7 -329 37 -357 44 -17 5 -34 7 -37 4
-3 -3 -28 1 -55 8 -42 10 -51 17 -51 35 0 17 -12 26 -58 42 -31 12 -82 36
-112 54 -48 29 -55 38 -61 73 -11 68 -16 165 -7 165 4 0 30 -20 58 -45 48 -43
101 -75 146 -89 31 -9 36 21 15 90 -16 57 -18 58 -99 103 -105 59 -181 126
-213 187 -13 27 -28 52 -34 56 -12 9 -89 11 -98 2 -14 -15 -489 -1 -576 17
-48 10 -58 16 -49 26 6 7 15 13 20 13 9 0 56 39 82 68 6 7 28 29 48 49 38 36
71 112 61 139 -7 18 -47 35 -65 29 -19 -6 -96 -17 -143 -20 -22 -1 -47 -5 -55
-8 -15 -5 -67 -13 -175 -25 -106 -12 -386 -8 -442 6 -57 15 -103 45 -103 67 0
7 19 36 43 64 67 78 114 189 88 205 -5 3 -26 8 -46 12 -54 8 -74 12 -97 20
-11 3 -30 8 -41 9 -45 8 -113 26 -142 39 -16 8 -59 26 -95 40 -36 15 -82 36
-103 47 l-37 20 0 -31 c0 -26 6 -33 38 -47 51 -21 123 -52 147 -64 11 -5 45
-16 75 -24 30 -8 90 -24 132 -36 43 -11 83 -17 88 -14 14 8 2 -44 -14 -65 -7
-8 -18 -27 -25 -41 -7 -15 -24 -32 -36 -39 -13 -7 -31 -33 -40 -57 -17 -43
-17 -46 2 -71 21 -28 26 -31 92 -61 89 -41 313 -58 496 -37 22 3 65 8 95 11
30 3 69 7 85 9 17 2 59 9 94 15 101 19 113 18 104 -6 -8 -21 -85 -98 -95 -95
-4 1 -12 -7 -18 -18 -6 -11 -15 -20 -21 -20 -22 0 -78 -58 -86 -88 -8 -33 5
-42 95 -63 88 -20 200 -29 432 -34 85 -2 157 -4 159 -4 10 -2 -49 -48 -83 -66
-21 -11 -43 -28 -50 -37 -6 -10 -16 -18 -23 -18 -6 0 -18 -6 -25 -12 -7 -7
-36 -28 -63 -47 -59 -40 -114 -97 -121 -126 -7 -29 1 -114 15 -148 6 -15 20
-37 31 -49 11 -12 20 -25 20 -30 0 -6 12 -21 68 -81 22 -24 122 -107 182 -151
83 -61 112 -86 100 -86 -16 0 -90 -59 -90 -71 0 -6 -12 -24 -27 -40 -16 -17
-38 -42 -50 -55 -13 -14 -23 -27 -23 -29 0 -3 753 -5 1673 -4 l1672 0 85 121
c47 67 90 123 95 125 10 2 50 -53 98 -137 14 -25 38 -60 54 -78 23 -28 34 -33
62 -30 l33 3 -31 35 c-17 19 -37 47 -43 63 -7 15 -16 27 -19 27 -8 0 -38 60
-37 74 0 5 -7 13 -16 18 -9 5 -16 16 -16 23 0 8 -5 15 -11 15 -5 0 -7 5 -4 10
4 6 1 18 -6 26 -10 12 -8 17 7 28 10 8 22 12 27 9 14 -8 45 26 82 91 43 73 76
124 131 203 22 32 44 65 48 73 8 18 21 39 69 112 20 31 37 61 37 66 0 23 26
29 60 14 34 -15 43 -16 127 -26 22 -2 61 -7 85 -10 39 -5 147 -12 353 -22 122
-6 137 -5 265 10 35 4 124 39 147 58 9 7 8 17 -5 41 -26 48 -64 97 -76 97 -13
1 -86 99 -86 116 0 21 8 24 120 45 30 6 78 12 106 13 28 2 60 9 73 15 12 7 25
10 30 7 4 -3 23 -1 42 4 19 5 51 12 72 15 31 5 37 10 37 30 0 28 -11 30 -75
15 -22 -5 -65 -12 -95 -15 -134 -15 -263 -38 -313 -57 -36 -14 -67 -54 -67
-86 0 -26 73 -132 90 -132 6 0 10 -4 10 -9 0 -5 14 -24 30 -41 19 -20 27 -37
22 -42 -26 -26 -303 -32 -542 -12 -30 3 -83 7 -118 9 -77 5 -183 25 -198 37
-7 5 -18 7 -25 6 -17 -4 -15 13 6 72 25 66 28 160 7 215 -18 50 -93 136 -152
175 -113 75 -150 103 -150 116 0 8 7 14 15 14 16 0 94 51 135 88 14 12 46 37
73 53 26 17 47 35 47 40 0 5 4 9 9 9 5 0 22 12 38 28 16 15 52 47 82 72 92 78
201 189 201 204 0 8 -9 18 -20 21 -26 8 -49 -10 -180 -138 -43 -42 -83 -77
-87 -77 -5 0 -15 -9 -23 -20 -8 -11 -18 -20 -22 -20 -4 0 -26 -18 -49 -40 -23
-22 -46 -40 -51 -40 -8 0 -74 -45 -88 -60 -17 -18 -96 -70 -107 -70 -7 0 -13
-5 -13 -11 0 -7 -10 -9 -25 -5 -18 5 -25 2 -25 -8 0 -16 -68 -76 -87 -76 -6 0
-18 -6 -25 -13 -23 -21 -140 -74 -215 -97 -77 -23 -102 -19 -123 20 -6 10 -30
28 -54 38 -44 20 -54 20 -186 -7 -25 -5 -48 -7 -52 -5 -18 11 -24 71 -13 122
13 53 13 53 -16 67 -32 17 -90 20 -105 5 -6 -6 -30 -12 -55 -14 -24 -2 -51 -6
-59 -9 -31 -11 -147 -27 -210 -30 -52 -1 -65 1 -65 13 -1 46 -19 101 -40 120
-26 24 -118 39 -130 20 -3 -5 -16 -10 -29 -10 -12 0 -27 -5 -32 -10 -6 -6 -19
-12 -30 -14 -10 -2 -23 -5 -29 -6 -29 -6 -34 0 -24 28 6 15 12 44 14 64 4 35
82 196 111 229 8 8 14 21 14 27 0 13 50 113 60 122 3 3 21 34 39 70 18 36 43
79 56 95 21 28 75 127 174 319 22 43 44 83 49 90 5 6 13 22 16 36 4 14 11 34
16 45 44 95 87 205 83 208 -2 3 2 16 11 29 8 13 17 33 19 45 1 12 8 27 14 35
5 7 11 20 11 28 3 29 26 125 33 130 3 3 10 28 14 55 15 96 15 105 -11 122 -37
24 -52 11 -53 -44 -1 -69 -37 -194 -113 -393 -15 -41 -28 -79 -28 -83 0 -5
-13 -38 -30 -74 -16 -35 -30 -70 -30 -77 0 -8 -7 -19 -15 -26 -8 -7 -15 -19
-15 -26 0 -8 -4 -14 -10 -14 -5 0 -10 -9 -10 -19 0 -11 -6 -26 -13 -33 -7 -7
-21 -33 -31 -58 -10 -25 -21 -47 -24 -50 -4 -3 -27 -44 -51 -92 -24 -49 -48
-88 -53 -88 -4 0 -8 -7 -8 -14 0 -8 -13 -35 -30 -59 -16 -25 -30 -48 -30 -51
0 -4 -11 -24 -25 -46 -14 -22 -25 -46 -25 -53 0 -8 -9 -22 -20 -32 -11 -10
-20 -26 -20 -36 0 -10 -8 -20 -19 -24 -11 -3 -21 -19 -25 -37 -3 -17 -14 -40
-24 -51 -9 -10 -16 -21 -15 -23 1 -2 -6 -24 -17 -50 -11 -25 -20 -49 -20 -52
0 -4 -9 -24 -20 -45 -11 -20 -20 -39 -20 -42 0 -3 0 -11 0 -18 0 -18 -55 -48
-74 -41 -27 10 -62 -38 -76 -104 -13 -58 -16 -62 -54 -76 -23 -8 -54 -18 -71
-21 -16 -4 -48 -14 -70 -22 -22 -9 -56 -19 -75 -24 -19 -4 -78 -19 -130 -33
-152 -42 -138 -42 -138 6 1 90 -2 99 -34 128 -48 44 -115 62 -244 66 -114 3
-157 7 -254 23 -30 5 -59 7 -63 4 -8 -5 -121 14 -282 48 -49 10 -105 21 -123
24 -18 3 -53 12 -78 21 -26 9 -54 17 -63 19 -55 11 -120 30 -143 41 -14 8 -48
21 -75 30 -62 20 -185 81 -198 98 -5 7 -20 18 -32 24 -25 14 -81 118 -89 165
-14 86 3 179 50 266 21 39 10 53 -38 49 -25 -3 -31 -10 -44 -48 -8 -25 -19
-53 -24 -63 -4 -10 -11 -61 -14 -114 -5 -101 11 -178 42 -203 7 -7 14 -20 14
-30 0 -10 10 -21 22 -24 22 -6 21 -7 -9 -21 -18 -8 -33 -19 -33 -25 0 -5 -6
-10 -12 -11 -7 0 -49 -17 -93 -38 -65 -31 -84 -36 -103 -28 -12 6 -22 14 -22
19 0 12 -26 38 -38 38 -6 0 -12 5 -14 11 -7 22 -91 22 -128 0 -19 -11 -47 -26
-62 -33 -16 -7 -28 -16 -28 -20 0 -4 -20 -17 -45 -28 -68 -31 -87 -21 -116 58
-13 37 -22 70 -21 75 1 4 -2 7 -7 7 -8 0 -17 37 -28 115 -3 22 -11 73 -18 113
-20 119 -25 338 -11 572 4 74 9 137 11 140 2 3 5 41 6 84 1 43 6 99 11 125 4
26 10 65 12 86 2 22 5 40 6 40 1 0 3 27 6 60 2 33 8 69 13 80 6 11 12 43 14
70 3 28 7 59 10 70 3 11 8 45 12 75 4 30 12 66 17 80 6 14 12 34 14 45 6 40
54 201 69 231 8 18 15 39 15 48 0 9 8 16 20 16 20 0 38 25 27 37 -3 3 -26 8
-52 10 -36 5 -45 3 -45 -10 0 -16 -15 -16 -61 -2 -11 4 -33 8 -50 10 -37 5
-135 44 -204 80 -52 28 -134 85 -122 85 4 0 -11 16 -33 36 -22 20 -40 40 -40
44 0 5 42 18 93 30 50 11 99 24 107 27 8 3 21 5 28 4 8 -1 25 5 38 14 14 9 28
14 33 11 4 -3 17 1 27 9 10 8 27 15 36 15 9 0 43 14 75 30 31 17 63 30 70 30
7 0 17 9 23 20 6 11 20 20 31 20 11 0 22 7 25 15 4 8 11 15 18 15 6 0 36 23
65 50 30 28 59 50 63 50 4 0 8 7 8 15 0 7 6 18 13 22 8 4 26 35 42 68 15 33
45 78 66 99 22 22 39 43 39 47 0 8 61 68 176 174 47 44 94 87 103 96 9 9 26
20 39 23 12 4 22 13 22 21 0 7 27 30 60 50 33 20 60 40 60 44 0 4 21 19 48 32
26 13 58 32 72 44 14 11 62 38 105 60 44 22 82 43 85 46 3 4 46 25 95 48 50
23 98 46 109 52 10 6 37 17 60 24 22 7 66 23 96 34 30 12 61 21 68 21 8 0 28
6 45 14 52 23 71 29 81 27 5 -1 27 5 50 14 22 9 52 18 66 21 14 2 63 13 110
24 303 70 853 99 905 47 20 -20 31 -21 42 -4 14 23 11 36 -12 51 -29 19 -34
48 -41 236 -9 237 -10 250 -30 430 -4 30 -8 78 -9 105 -5 87 -15 176 -22 203
-3 15 -7 46 -8 69 -4 80 -12 93 -50 93 -33 0 -35 -2 -29 -26 4 -14 8 -47 9
-72 1 -26 4 -49 5 -52 1 -3 2 -8 2 -11 -1 -4 3 -33 8 -65 5 -33 12 -97 15
-144 4 -47 9 -88 11 -92 6 -9 14 -123 20 -268 2 -69 6 -152 9 -185 2 -33 5
-85 6 -115 1 -30 5 -60 9 -65 6 -7 -14 -8 -58 -4 -37 3 -94 5 -127 3 -103 -4
-289 -16 -320 -19 -114 -12 -146 -17 -195 -26 -30 -5 -67 -11 -81 -13 -14 -1
-30 -5 -35 -9 -6 -3 -28 -8 -50 -11 -21 -3 -60 -11 -86 -19 -27 -8 -48 -13
-48 -11 0 3 -8 0 -19 -5 -10 -6 -33 -12 -52 -15 -47 -7 -57 -10 -113 -35 -27
-12 -51 -19 -54 -17 -2 3 -14 -1 -26 -9 -11 -8 -30 -15 -42 -15 -22 0 -80 -26
-89 -40 -3 -4 -14 -6 -25 -3 -11 3 -20 1 -20 -5 0 -9 -28 -20 -75 -29 -11 -2
-22 -8 -24 -14 -3 -9 -43 -30 -61 -33 -18 -3 -98 -43 -114 -58 -10 -9 -32 -22
-50 -29 -17 -7 -41 -21 -53 -32 -13 -11 -25 -18 -29 -15 -3 3 -19 -7 -37 -23
-17 -16 -37 -29 -44 -29 -7 0 -13 -3 -13 -8 0 -4 -13 -13 -28 -20 -30 -13 -71
-44 -138 -104 -22 -21 -43 -36 -45 -33 -3 2 -22 -14 -43 -35 -21 -22 -42 -40
-46 -40 -16 0 -110 159 -110 186 0 7 -5 14 -11 16 -7 2 -12 28 -13 58 -1 51 1
55 24 58 14 2 30 7 35 11 6 4 44 13 85 20 41 7 84 17 95 23 12 5 41 10 65 11
47 2 49 5 37 67 0 3 3 28 7 57 7 49 9 51 43 58 19 3 46 17 60 31 13 13 30 24
38 24 24 0 27 18 30 144 1 66 6 129 10 138 4 12 -1 25 -17 41 -26 26 -25 48 5
104 8 15 23 48 32 73 16 42 56 133 76 172 5 10 9 24 9 32 0 8 6 21 13 28 15
15 41 75 36 82 -2 2 3 12 12 22 9 11 35 57 58 104 23 47 53 103 66 125 14 22
32 56 41 75 9 19 20 37 24 40 4 3 12 15 19 28 11 21 10 22 -26 22 -32 0 -42
-6 -60 -33z"/>
<path d="M2890 6923 c-1 -43 -2 -91 -1 -108 0 -27 1 -214 0 -257 0 -32 -14
-27 -54 22 -69 85 -166 116 -202 65 -10 -14 -30 -42 -46 -62 -15 -20 -32 -54
-39 -77 -7 -23 -18 -50 -25 -61 -7 -11 -13 -35 -15 -54 -2 -30 -28 -58 -41
-45 -9 10 -77 16 -100 10 -29 -8 -90 -63 -111 -101 -26 -48 -45 -149 -36 -192
5 -20 8 -40 7 -44 -3 -11 54 -60 67 -56 12 4 12 24 0 72 -10 43 -8 137 4 144
6 3 13 18 17 31 3 14 22 42 41 63 39 41 70 47 110 20 24 -16 28 -15 60 2 19
10 34 24 34 32 0 8 7 28 17 46 9 18 18 44 19 60 4 32 35 95 72 146 31 42 56
43 87 4 46 -59 85 -91 120 -103 36 -12 40 -11 56 9 27 32 34 112 29 321 -1 58
-1 110 0 115 1 6 2 25 1 43 -1 29 -4 32 -35 32 l-33 0 -3 -77z"/>
<path d="M4340 6993 c-8 -3 -22 -13 -31 -22 -33 -33 -79 -71 -86 -71 -5 0 -17
-14 -28 -30 -11 -17 -28 -33 -37 -36 -10 -3 -18 -8 -18 -12 0 -4 -17 -25 -37
-47 -20 -22 -55 -62 -78 -90 -22 -27 -52 -62 -65 -77 -37 -40 -47 -53 -54 -74
-3 -10 -17 -31 -31 -46 -14 -15 -25 -29 -25 -32 0 -2 -22 -40 -49 -84 -28 -44
-47 -82 -44 -85 5 -6 -34 -67 -50 -78 -5 -3 -8 -9 -8 -13 3 -14 -31 -116 -38
-116 -5 0 -12 -15 -16 -32 -4 -18 -9 -40 -12 -48 -20 -75 -21 -151 -1 -176 11
-14 63 -25 82 -18 21 8 28 34 15 50 -9 11 -7 14 7 15 11 1 33 3 49 5 123 19
386 -6 530 -49 81 -24 191 -64 231 -83 28 -13 54 -24 58 -24 17 0 135 -64 130
-71 -6 -11 29 -29 56 -29 11 0 66 23 123 51 56 29 109 55 117 59 8 4 24 12 35
18 22 13 67 30 75 28 3 0 16 7 30 17 13 9 33 17 42 17 10 0 26 4 36 10 22 13
130 53 262 96 58 19 114 39 125 44 11 5 34 11 50 14 37 6 113 26 140 37 11 4
34 10 50 12 17 3 55 10 85 15 30 6 69 13 85 16 17 3 53 12 82 19 28 8 66 12
82 9 17 -2 38 1 46 8 9 7 48 15 88 17 39 2 89 5 109 7 l37 2 -37 -45 c-20 -26
-41 -49 -47 -53 -5 -4 -7 -8 -3 -8 4 0 -3 -11 -15 -24 -52 -56 -67 -74 -67
-83 0 -8 -41 -56 -100 -119 -11 -12 -20 -24 -20 -28 0 -4 -16 -24 -36 -46 -19
-21 -46 -52 -58 -69 -13 -17 -35 -42 -49 -57 -15 -15 -27 -33 -27 -40 0 -8 -4
-14 -8 -14 -15 0 -89 -125 -90 -154 -3 -40 34 -73 99 -92 92 -26 107 -35 124
-71 30 -62 17 -108 -84 -303 -34 -65 -32 -68 62 -130 62 -40 97 -85 97 -124 0
-63 -10 -82 -99 -192 -4 -5 -14 -20 -20 -32 -10 -19 -9 -23 13 -33 31 -15 56
3 113 83 39 53 63 112 66 163 2 43 -46 117 -100 152 -29 18 -56 33 -62 33 -22
0 -21 22 2 68 13 26 36 70 50 99 15 28 29 64 33 80 9 42 10 133 2 133 -5 0 -8
8 -8 18 -1 24 -84 77 -152 96 -31 9 -60 21 -63 27 -8 11 42 119 54 119 5 0 21
19 37 42 16 23 36 50 44 59 8 9 26 30 39 45 13 16 39 46 57 67 19 20 32 37 29
37 -6 0 42 56 68 79 9 8 17 20 17 26 0 5 18 30 41 55 51 57 149 186 149 198 0
5 11 19 25 32 24 23 29 23 230 24 l205 1 0 26 c0 36 -21 40 -187 34 -265 -10
-398 -19 -513 -36 -47 -6 -101 -13 -120 -15 -19 -2 -80 -13 -135 -24 -55 -12
-112 -23 -128 -25 -15 -2 -31 -7 -36 -9 -5 -3 -25 -8 -44 -10 -19 -3 -61 -13
-93 -22 -33 -10 -66 -18 -74 -19 -8 -1 -22 -5 -30 -8 -54 -20 -114 -36 -118
-32 -3 2 -17 -4 -32 -15 -15 -11 -29 -17 -32 -15 -3 3 -18 -1 -34 -10 -16 -8
-39 -15 -51 -15 -13 0 -23 -4 -23 -10 0 -5 -7 -7 -15 -4 -8 4 -15 1 -15 -6 0
-6 -4 -8 -10 -5 -5 3 -10 2 -10 -2 0 -11 -108 -45 -120 -38 -5 3 -10 2 -12 -3
-4 -9 -114 -62 -129 -62 -6 0 -17 -7 -25 -15 -9 -8 -24 -15 -33 -15 -10 0 -24
-7 -31 -15 -7 -8 -23 -15 -36 -15 -13 0 -24 -4 -24 -9 0 -5 -13 -14 -30 -21
-16 -7 -30 -16 -30 -21 0 -12 -35 -12 -58 0 -22 12 -92 44 -162 74 -30 14 -81
32 -113 42 -32 10 -60 22 -63 26 -3 5 -15 9 -28 9 -12 0 -26 4 -32 8 -12 11
-75 30 -139 42 -128 25 -154 29 -220 36 -86 8 -82 8 -182 1 l-83 -5 33 31 c17
18 44 46 58 62 63 71 245 225 266 225 5 0 26 16 48 35 22 19 48 35 58 35 10 0
20 7 23 15 4 8 11 12 16 9 6 -4 13 -2 17 3 8 11 108 73 120 73 4 0 30 12 57
27 78 42 143 73 154 73 5 0 26 9 46 21 20 11 42 18 49 15 7 -2 21 3 31 12 11
10 28 17 39 17 11 0 31 5 44 12 13 6 29 9 36 7 7 -3 16 -1 19 5 4 6 13 8 21 4
8 -3 15 0 15 7 0 6 3 9 8 7 4 -3 36 2 72 11 88 20 205 23 255 5 22 -8 53 -17
68 -20 30 -5 90 -40 120 -70 10 -10 55 -57 101 -105 91 -96 119 -108 137 -60
12 31 6 174 -9 213 -6 15 -8 29 -6 32 3 3 -3 20 -12 39 -10 18 -17 38 -16 45
2 7 -7 32 -20 55 -12 24 -21 47 -20 51 1 4 -4 18 -13 30 -8 12 -15 27 -15 34
0 7 -8 22 -17 33 -10 11 -18 24 -18 28 -1 22 -42 52 -72 52 l-32 0 39 -60 c22
-32 40 -63 40 -68 0 -4 11 -32 25 -61 14 -29 29 -67 32 -84 3 -18 9 -36 14
-42 13 -18 37 -129 41 -192 l4 -62 -25 28 c-15 16 -38 43 -53 60 -16 17 -28
35 -28 39 0 5 -11 14 -25 20 -14 7 -31 17 -38 22 -44 39 -130 81 -191 96 -66
15 -265 22 -285 10 -4 -3 -23 -8 -41 -11 -19 -3 -48 -12 -65 -20 -16 -8 -41
-16 -55 -19 -14 -2 -32 -7 -40 -10 -8 -3 -26 -7 -40 -10 -40 -7 -110 -34 -146
-57 -19 -11 -34 -18 -34 -15 0 3 -41 -16 -92 -41 -50 -25 -98 -46 -105 -46 -7
0 -13 -3 -13 -7 0 -4 -22 -17 -50 -30 -27 -13 -50 -27 -50 -32 0 -4 -6 -8 -14
-8 -8 0 -16 -5 -18 -11 -2 -5 -11 -11 -20 -13 -9 -1 -25 -9 -35 -18 -10 -8
-33 -23 -50 -32 -18 -9 -33 -21 -33 -26 0 -6 -7 -10 -15 -10 -8 0 -25 -11 -39
-25 -14 -14 -29 -25 -33 -25 -5 0 -42 -31 -82 -70 -41 -38 -78 -70 -82 -70 -5
0 -9 -4 -9 -8 0 -9 -84 -102 -92 -102 -3 0 7 35 22 78 26 71 45 110 114 232
14 25 31 56 38 70 7 14 15 27 19 30 3 3 14 19 23 35 19 35 83 124 114 160 12
14 22 30 22 35 0 6 7 13 15 16 8 4 15 12 15 20 0 8 6 14 13 14 7 0 33 23 58
52 24 29 59 66 77 83 115 105 141 126 174 147 21 13 38 26 38 31 0 8 -87 8
-110 0z"/>
<path d="M2818 5552 c-10 -2 -18 -7 -18 -11 0 -4 -10 -8 -22 -8 -13 -1 -27 -8
-33 -15 -5 -7 -23 -19 -38 -27 -15 -8 -37 -30 -48 -48 -11 -18 -28 -39 -37
-46 -18 -13 -31 -34 -85 -142 -42 -83 -97 -220 -104 -255 -2 -14 -11 -50 -19
-80 -22 -80 -33 -127 -44 -195 -5 -33 -12 -78 -15 -99 -4 -22 -14 -46 -22 -54
-8 -9 -20 -28 -25 -44 -6 -15 -14 -28 -18 -28 -4 0 -20 -30 -35 -67 -14 -38
-35 -86 -45 -108 -33 -70 -101 -238 -117 -290 -8 -27 -19 -55 -23 -60 -5 -6
-12 -34 -16 -62 -6 -48 -5 -52 21 -69 23 -15 28 -15 36 -3 8 13 13 52 10 73
-1 4 2 13 7 20 5 6 15 32 22 59 7 26 17 50 21 53 5 3 9 16 9 29 0 13 4 26 9
30 5 3 13 20 16 38 4 17 16 48 25 67 27 52 68 141 79 173 6 15 15 27 21 27 6
0 8 -5 4 -12 -9 -14 -7 -228 2 -283 7 -41 11 -76 20 -155 5 -51 6 -60 21 -115
6 -22 17 -65 23 -95 7 -30 21 -84 31 -119 11 -35 17 -66 14 -69 -2 -2 2 -14
10 -26 8 -11 15 -32 15 -46 0 -14 15 -52 33 -85 26 -48 39 -61 66 -69 28 -8
36 -7 47 10 7 10 18 24 24 31 5 6 17 31 26 55 8 24 22 55 30 71 8 15 12 27 8
27 -4 0 0 8 8 18 8 9 18 29 22 45 3 15 10 27 14 27 4 0 19 -46 32 -102 31
-132 40 -157 70 -201 20 -30 31 -37 58 -37 48 0 80 20 142 90 30 34 62 70 71
79 15 15 67 81 119 151 14 18 35 44 48 56 12 13 22 27 22 32 0 5 10 14 23 21
12 6 31 25 42 41 11 17 23 30 28 30 4 0 7 4 7 10 0 5 16 24 35 43 19 19 35 38
35 42 0 11 49 55 61 55 5 0 9 5 9 11 0 6 16 25 35 43 19 19 35 37 35 40 0 4
26 34 57 67 l57 59 23 -83 c26 -93 27 -96 37 -118 4 -9 8 -27 10 -40 3 -23 18
-64 37 -101 5 -10 9 -27 9 -38 0 -11 4 -20 10 -20 5 0 13 -18 16 -40 4 -22 10
-40 14 -40 8 0 25 -49 22 -62 -1 -5 2 -8 6 -8 4 0 30 -44 57 -97 28 -54 58
-106 67 -117 9 -10 25 -35 34 -55 9 -20 23 -44 32 -53 8 -10 12 -18 8 -18 -4
0 4 -11 18 -24 15 -13 26 -30 26 -37 0 -8 9 -20 20 -27 11 -7 20 -18 20 -25 0
-18 40 -53 68 -60 35 -8 55 18 48 67 -9 67 -13 89 -25 136 -25 101 -81 369
-81 392 0 13 -3 28 -7 32 -5 4 -9 12 -9 17 -1 5 -2 10 -3 12 -1 1 -4 31 -7 67
-7 76 -11 113 -15 120 -1 3 -3 19 -4 35 -1 17 -5 68 -9 115 -5 74 -8 247 -4
320 0 14 0 33 -1 42 -1 21 -48 35 -63 20 -11 -11 -14 -241 -4 -348 3 -32 8
-99 11 -149 3 -49 8 -103 11 -118 3 -16 7 -38 9 -50 4 -33 26 -145 41 -211 7
-32 11 -62 9 -67 -3 -4 -1 -10 5 -14 5 -3 10 -19 10 -36 0 -16 4 -37 9 -47 12
-23 44 -183 37 -189 -9 -9 -28 9 -23 21 3 7 -4 18 -14 24 -10 7 -19 18 -19 26
0 7 -11 26 -24 41 -13 16 -38 57 -55 92 -17 34 -36 63 -42 63 -5 0 -8 4 -5 8
3 5 -6 25 -19 44 -13 20 -21 38 -18 42 4 3 1 6 -5 6 -7 0 -12 9 -12 20 0 11
-5 20 -11 20 -5 0 -7 5 -4 10 3 6 -1 17 -9 26 -9 8 -16 24 -16 34 0 10 -4 22
-10 25 -5 3 -10 15 -10 25 0 10 -4 20 -10 22 -5 2 -12 21 -15 42 -2 22 -9 43
-15 46 -6 4 -14 22 -16 40 -3 18 -14 49 -24 68 -11 19 -17 39 -14 43 5 9 -23
134 -38 166 -6 11 -8 25 -4 31 3 5 1 24 -5 43 -5 19 -12 72 -15 119 -2 47 -6
113 -8 147 -2 34 0 82 5 105 8 46 -5 68 -42 68 -18 0 -31 -38 -31 -92 -1 -158
6 -288 18 -334 18 -71 18 -71 -11 -78 -21 -5 -75 -46 -60 -46 2 0 -16 -20 -40
-44 -25 -24 -45 -48 -45 -53 0 -5 -18 -22 -40 -39 -22 -16 -40 -34 -40 -40 0
-7 -13 -22 -30 -35 -16 -13 -30 -30 -30 -36 0 -7 -4 -13 -9 -13 -4 0 -21 -18
-36 -40 -15 -22 -34 -40 -41 -40 -8 0 -14 -6 -14 -13 0 -8 -22 -37 -49 -64
-27 -28 -47 -53 -44 -56 2 -3 -5 -10 -16 -17 -12 -6 -33 -30 -48 -53 -14 -23
-41 -58 -59 -77 -47 -50 -88 -96 -136 -152 -22 -26 -44 -48 -47 -48 -9 0 -37
71 -33 82 1 4 -2 8 -8 8 -5 0 -10 17 -10 38 0 20 -6 49 -14 64 -8 14 -17 44
-21 65 -8 50 -46 93 -81 93 -31 0 -84 -44 -84 -70 0 -9 -7 -25 -15 -36 -8 -10
-15 -25 -15 -32 0 -8 -8 -26 -19 -40 -10 -15 -22 -42 -26 -59 -8 -40 -23 -43
-31 -5 -5 26 -12 46 -34 95 -9 20 -35 114 -45 162 -3 11 -8 34 -11 50 -3 17
-10 35 -16 41 -5 7 -8 27 -8 45 1 19 -8 75 -19 124 -11 50 -19 105 -17 123 2
18 -1 35 -6 38 -11 7 -8 305 4 394 5 36 11 83 13 105 4 45 9 77 19 120 3 17 8
44 10 60 7 49 50 210 59 213 4 2 7 17 7 33 0 16 4 29 9 29 5 0 12 12 16 27 7
29 56 135 66 143 3 3 17 30 31 60 28 60 117 160 142 160 9 0 16 4 16 8 0 5 10
14 23 21 17 9 32 9 70 -3 50 -15 63 -9 52 23 -7 25 -88 52 -127 43z"/>
<path d="M1825 5198 c-22 -22 -39 -44 -37 -49 1 -5 -4 -9 -12 -9 -13 0 -36
-30 -76 -99 -8 -14 -23 -32 -32 -39 -10 -7 -18 -19 -18 -27 0 -7 -6 -20 -12
-27 -7 -7 -22 -31 -33 -52 -11 -22 -24 -45 -30 -51 -10 -11 -36 -57 -87 -157
-16 -32 -34 -60 -39 -63 -5 -4 -9 -14 -9 -23 0 -9 -16 -50 -35 -89 -19 -40
-34 -76 -33 -80 0 -5 -4 -21 -11 -38 -7 -16 -14 -34 -15 -40 -2 -5 -10 -35
-20 -65 -25 -80 -48 -162 -51 -187 -2 -11 -6 -29 -9 -40 -10 -33 -20 -126 -20
-208 -1 -98 17 -159 52 -174 33 -16 37 -9 25 47 -11 48 -10 196 2 242 3 14 8
43 10 65 7 61 52 232 66 250 4 6 11 26 14 45 5 35 15 60 41 113 8 16 14 35 14
43 0 14 108 227 149 294 12 19 24 43 27 53 4 9 9 17 13 17 4 0 15 17 26 38 11
20 39 65 62 99 24 35 43 67 43 73 0 5 7 10 15 10 8 0 15 4 15 9 0 5 18 29 41
54 37 42 43 45 65 35 18 -9 27 -9 36 0 13 13 -2 36 -36 54 -39 21 -60 16 -101
-24z"/>
<path d="M1390 4773 c-16 -27 -30 -53 -30 -60 0 -6 -4 -13 -8 -15 -16 -6 -96
-192 -126 -293 -7 -22 -18 -52 -24 -66 -11 -27 -34 -106 -37 -124 0 -5 -6 -28
-12 -50 -14 -46 -21 -110 -29 -246 -7 -121 13 -210 57 -251 16 -16 38 -28 49
-28 25 0 25 -3 -2 56 -12 27 -24 56 -26 64 -8 29 -7 186 2 265 5 44 9 89 10
100 2 11 8 30 14 42 7 12 12 30 12 41 0 11 20 80 44 153 47 145 119 305 173
384 32 46 33 50 17 62 -32 23 -53 15 -84 -34z"/>
<path d="M6965 4457 c-16 -19 -39 -47 -50 -62 -11 -16 -46 -54 -77 -84 -32
-31 -58 -61 -58 -68 0 -7 -16 -25 -35 -40 -19 -15 -35 -32 -35 -37 0 -5 -10
-18 -22 -30 -13 -12 -50 -53 -83 -91 -32 -39 -69 -81 -82 -95 -46 -51 -77 -93
-79 -107 -1 -7 9 -16 22 -19 19 -5 24 -13 24 -38 1 -17 9 -56 20 -86 11 -30
19 -65 20 -77 0 -12 4 -24 9 -27 5 -3 12 -22 16 -42 8 -47 113 -264 127 -264
5 0 8 -7 8 -15 0 -18 25 -59 57 -95 13 -14 23 -29 23 -35 1 -15 33 -50 53 -58
9 -3 20 -15 24 -24 10 -27 96 -123 110 -123 7 0 19 -12 27 -27 15 -28 15 -28
16 25 0 56 -3 61 -62 122 -21 21 -38 42 -38 47 0 5 -10 19 -22 30 -43 38 -117
139 -118 158 0 6 -14 26 -30 45 -16 19 -30 37 -31 40 -6 39 -25 86 -38 95 -6
3 -11 14 -11 23 0 9 -6 29 -14 43 -11 22 -23 60 -26 81 0 4 -8 24 -16 43 -8
20 -12 40 -9 45 3 5 1 11 -4 14 -8 5 -23 58 -27 99 -1 10 -6 23 -12 29 -8 8
-3 19 18 40 17 15 30 33 30 38 0 6 7 10 15 10 8 0 15 4 15 9 0 5 42 56 93 113
51 57 103 117 116 133 12 17 55 64 94 105 69 72 71 77 75 132 3 32 3 58 1 58
-2 0 -17 -15 -34 -33z"/>
<path d="M1555 4280 c-15 -24 86 -100 235 -177 129 -67 190 -86 190 -60 0 6
-55 39 -122 72 -67 33 -126 65 -132 70 -6 6 -31 24 -56 40 -24 17 -52 38 -62
48 -20 19 -44 22 -53 7z"/>
<path d="M1840 3590 c-8 -5 -30 -10 -48 -10 -20 0 -35 -6 -39 -16 -3 -8 -11
-13 -19 -10 -7 3 -31 -4 -53 -15 -22 -10 -46 -19 -52 -19 -7 0 -24 -10 -38
-23 -15 -13 -46 -32 -71 -42 -25 -10 -51 -25 -57 -34 -7 -8 -13 -11 -13 -7 0
4 -12 -2 -26 -13 -15 -12 -33 -21 -40 -21 -8 0 -14 -4 -14 -9 0 -10 -16 -20
-96 -61 -23 -12 -52 -32 -64 -46 -43 -45 -48 -35 -45 109 2 72 4 137 5 142 7
32 -1 45 -30 45 -18 0 -33 -7 -38 -17 -10 -20 -9 -479 1 -503 4 -8 9 -37 11
-65 3 -27 8 -66 11 -85 4 -19 8 -53 10 -75 2 -22 4 -40 5 -40 1 0 3 -15 6 -33
2 -18 8 -42 14 -52 5 -10 10 -30 10 -44 0 -23 -2 -25 -20 -14 -10 7 -17 14
-15 16 2 2 -4 11 -13 21 -10 9 -28 32 -42 51 -14 18 -36 45 -50 59 -14 14 -25
28 -25 31 -1 3 -13 24 -28 47 -15 24 -27 47 -27 53 0 5 -4 10 -10 10 -5 0 -10
7 -10 15 0 8 -4 23 -10 33 -5 9 -23 59 -40 110 -44 134 -52 255 -25 363 6 22
3 27 -16 32 -40 10 -57 -8 -65 -70 -5 -32 -8 -74 -8 -93 1 -59 22 -192 32
-202 6 -6 8 -17 5 -24 -3 -8 0 -14 7 -14 6 0 8 -4 5 -10 -3 -5 3 -30 15 -54
11 -25 20 -51 20 -59 0 -8 9 -26 20 -40 11 -14 20 -28 20 -32 0 -11 124 -185
132 -185 4 0 8 -4 8 -9 0 -16 134 -143 173 -163 24 -13 46 -18 62 -14 27 7 35
36 10 36 -8 0 -17 12 -21 28 -3 15 -8 35 -10 44 -10 36 -43 226 -50 288 -3 25
-7 59 -9 75 -2 17 -5 53 -6 82 -1 29 -5 50 -9 48 -4 -2 -5 6 -3 20 3 15 15 27
33 34 16 5 33 18 38 28 6 10 26 25 46 33 20 7 36 17 36 21 0 7 70 52 83 53 4
1 11 6 15 11 4 6 25 19 47 30 22 11 56 32 76 48 20 16 43 29 51 31 8 1 26 9
39 17 56 37 180 83 264 98 44 8 67 8 92 -1 24 -9 36 -9 44 -1 16 16 2 48 -27
61 -30 14 -143 15 -164 2z"/>
<path d="M1998 3394 c-16 -8 -28 -11 -28 -7 0 4 -4 3 -8 -2 -4 -6 -27 -26 -52
-45 -24 -19 -58 -47 -74 -62 -17 -16 -33 -28 -36 -28 -3 0 -16 -18 -30 -40
-14 -22 -28 -40 -31 -40 -4 0 -9 -7 -12 -14 -5 -12 3 -14 44 -9 45 5 56 12
124 80 41 41 75 71 75 67 0 -4 9 1 20 11 11 10 20 15 20 12 0 -4 16 3 37 14
35 20 37 20 69 3 27 -15 35 -16 48 -5 19 16 20 28 3 45 -38 38 -119 48 -169
20z"/>
<path d="M5445 3300 c-19 -30 37 -79 56 -49 17 26 6 54 -23 57 -14 2 -29 -2
-33 -8z"/>
<path d="M2220 3272 c0 -15 7 -38 16 -50 18 -27 24 -49 30 -127 4 -55 -12
-145 -26 -145 -3 0 -14 -20 -24 -45 -11 -25 -23 -45 -27 -45 -4 0 -10 -8 -14
-19 -8 -25 -54 -72 -88 -90 -15 -8 -27 -20 -27 -28 0 -7 -6 -13 -14 -13 -7 0
-19 -7 -26 -15 -7 -8 -20 -15 -29 -15 -9 0 -22 -5 -28 -11 -17 -17 -114 -19
-159 -3 -31 12 -47 27 -71 68 -28 45 -31 60 -29 112 3 58 9 95 20 113 3 5 -15
8 -39 7 -44 -1 -45 -2 -58 -46 -8 -27 -10 -50 -5 -57 5 -7 5 -14 -1 -17 -13
-8 -3 -66 15 -87 8 -8 14 -22 14 -30 0 -8 18 -33 40 -56 28 -31 56 -48 101
-63 66 -21 183 -27 194 -10 3 6 15 10 26 10 10 0 19 5 19 10 0 6 5 10 12 10
16 0 110 61 125 81 7 9 29 33 48 53 19 20 35 41 35 46 0 6 7 13 15 16 8 4 15
10 15 16 0 5 9 28 21 51 21 45 49 145 51 187 5 95 -59 220 -113 220 -14 0 -19
-7 -19 -28z"/>
<path d="M5347 3168 c-13 -36 57 -74 88 -48 22 18 19 26 -19 44 -41 19 -63 20
-69 4z"/>
<path d="M3417 3099 c-15 -4 -51 -19 -79 -33 -29 -14 -58 -26 -65 -26 -7 0
-13 -4 -13 -10 0 -5 -6 -10 -13 -10 -7 0 -31 -13 -53 -30 -21 -16 -43 -30 -49
-30 -16 -1 -55 -46 -55 -63 0 -44 70 -39 111 7 17 20 40 36 50 36 10 0 19 5
19 10 0 6 6 10 14 10 7 0 19 7 26 15 7 8 19 15 27 15 8 0 39 11 70 26 69 31
146 36 233 14 114 -29 171 -65 316 -197 53 -50 71 -53 80 -17 6 22 -1 33 -47
75 -148 136 -308 210 -459 214 -47 1 -97 -1 -113 -6z"/>
<path d="M5269 2943 c0 -5 -2 -15 -4 -23 -2 -8 -8 -31 -13 -50 -8 -32 -49
-125 -71 -160 -5 -8 -12 -22 -15 -30 -4 -8 -15 -28 -26 -45 -11 -16 -27 -46
-35 -65 -8 -19 -21 -44 -28 -56 -28 -48 -76 -120 -91 -136 -9 -10 -13 -18 -10
-18 4 0 -5 -15 -20 -34 -14 -19 -26 -37 -26 -40 0 -9 -80 -125 -91 -132 -16
-9 -51 -96 -42 -104 25 -24 47 -13 84 40 54 78 55 78 99 147 22 34 51 74 65
89 14 15 25 32 25 38 0 7 20 42 44 79 25 38 56 89 69 115 54 105 72 137 80
140 4 2 7 11 7 20 0 10 13 44 28 77 39 82 47 132 22 145 -22 12 -50 13 -51 3z"/>
<path d="M5436 2785 c-70 -142 -180 -321 -233 -380 -7 -7 -13 -19 -13 -25 0
-6 -7 -13 -15 -16 -8 -4 -15 -12 -15 -19 0 -7 -7 -15 -15 -19 -8 -3 -15 -14
-15 -25 0 -10 -6 -21 -14 -24 -8 -3 -31 -29 -50 -58 -27 -41 -33 -56 -25 -71
5 -10 17 -18 26 -18 16 0 63 44 63 60 0 5 12 22 26 37 14 15 41 51 60 78 18
28 43 61 56 76 26 29 29 33 99 149 28 47 57 92 63 100 7 8 23 40 36 70 12 30
27 58 32 61 5 3 10 12 12 20 1 8 7 24 14 36 18 32 15 50 -10 57 -13 3 -26 6
-29 6 -4 0 -28 -43 -53 -95z"/>
<path d="M6608 2477 c-7 -8 -24 -19 -37 -26 -17 -10 -21 -18 -16 -34 3 -12 7
-26 9 -32 15 -56 39 -122 65 -178 17 -38 31 -75 31 -83 0 -8 5 -14 10 -14 6 0
10 -4 10 -9 0 -9 75 -136 92 -155 5 -6 18 -24 28 -41 46 -70 111 -158 172
-228 l28 -32 0 53 c0 48 -17 89 -50 122 -3 3 -19 25 -35 50 -16 25 -36 49 -42
53 -7 4 -13 15 -13 24 0 9 -8 23 -18 32 -24 22 -73 104 -111 187 -18 38 -41
86 -52 107 -11 21 -22 46 -24 55 -2 9 -8 32 -14 49 -9 30 -8 32 9 23 10 -6 28
-10 39 -10 10 0 21 -5 23 -11 4 -11 79 -32 178 -51 30 -6 59 -14 65 -19 5 -5
17 -9 27 -9 13 0 18 8 18 30 0 35 -21 49 -90 57 -28 3 -50 10 -50 14 0 5 -3 8
-7 7 -16 -4 -88 14 -107 28 -11 8 -28 14 -38 14 -10 0 -18 3 -18 8 0 7 -47 32
-61 32 -4 0 -14 -6 -21 -13z"/>
<path d="M6083 2370 c-21 -8 -23 -38 -4 -41 29 -6 60 -5 79 2 19 7 21 12 12
29 -11 21 -48 26 -87 10z"/>
<path d="M2890 2301 c-8 -4 -44 -14 -80 -21 -36 -7 -69 -16 -75 -19 -5 -3 -12
-6 -15 -6 -3 0 -19 -6 -37 -14 -35 -14 -49 -39 -33 -55 5 -5 10 -20 10 -33 0
-13 4 -23 10 -23 5 0 18 -19 28 -42 11 -24 29 -52 41 -62 11 -11 21 -25 21
-32 0 -6 16 -26 35 -43 20 -17 32 -31 28 -31 -18 -1 61 -30 81 -30 41 1 91 63
110 140 15 56 18 162 6 204 -10 38 -18 46 -54 60 -47 18 -55 19 -76 7z m64
-99 c14 -100 -17 -235 -56 -248 -25 -7 -62 34 -130 144 -36 59 -44 80 -37 94
5 10 17 18 27 19 9 0 40 8 67 18 28 9 66 18 87 19 36 2 36 2 42 -46z"/>
<path d="M6048 2234 c-56 -30 -19 -63 42 -38 23 10 30 19 26 30 -3 9 -6 18 -6
20 0 9 -37 2 -62 -12z"/>
<path d="M2592 933 c-27 -23 -34 -38 -39 -79 -9 -79 -5 -80 204 -87 120 -3
182 -1 191 6 10 8 11 25 7 61 -15 111 -41 126 -220 126 -106 0 -112 -1 -143
-27z m256 -29 c24 -5 32 -13 37 -36 4 -16 5 -32 2 -34 -2 -3 -64 -2 -136 2
-116 6 -131 9 -131 25 0 45 8 49 105 49 51 0 106 -3 123 -6z"/>
<path d="M550 722 c-30 -8 -59 -21 -63 -29 -4 -7 -16 -13 -26 -13 -30 0 -151
-113 -151 -140 0 -25 -38 -60 -57 -53 -11 4 -14 3 -9 -5 4 -7 4 -12 -1 -13
-36 -3 -61 -13 -96 -39 -23 -17 -44 -30 -49 -30 -4 0 -28 -20 -53 -44 -42 -42
-45 -47 -45 -98 l0 -53 19 30 c10 17 30 38 44 48 14 9 37 27 50 41 23 23 84
59 89 54 2 -2 17 6 33 18 95 65 225 84 290 44 18 -11 37 -20 44 -20 22 0 10
39 -18 60 -31 21 -133 45 -157 36 -40 -15 5 38 66 79 25 16 47 32 50 35 3 4
22 14 42 23 63 29 124 24 165 -14 12 -13 23 -27 23 -31 0 -5 12 -25 26 -43 14
-19 27 -40 28 -47 1 -7 8 -23 14 -35 7 -13 10 -23 7 -23 -4 0 3 -12 14 -26 12
-15 21 -32 21 -38 0 -7 -3 -7 -8 -1 -4 6 -26 20 -49 33 -38 21 -51 22 -112 16
-42 -4 -77 -13 -88 -23 -20 -17 -43 -31 -105 -64 -20 -11 -51 -33 -68 -49 -17
-15 -34 -28 -38 -28 -4 0 -24 -24 -45 -53 l-38 -52 22 -18 c26 -21 64 -19 64
4 0 19 49 79 64 79 6 0 11 5 11 10 0 11 79 64 157 106 28 15 70 27 100 29 49
4 54 2 75 -28 52 -75 93 -109 144 -119 50 -11 55 -11 114 -8 19 0 42 -1 50 -2
42 -10 101 -70 105 -107 1 -9 5 -29 10 -45 4 -16 8 -38 9 -50 1 -17 8 -22 36
-24 32 -3 36 0 38 22 1 14 -2 27 -7 30 -5 3 -7 19 -5 36 2 16 0 30 -4 30 -8 0
-36 60 -33 72 1 11 -61 56 -105 74 -22 9 -72 18 -114 19 -92 2 -125 11 -111
29 15 17 15 96 1 96 -6 0 -25 40 -56 120 -10 25 -29 55 -43 67 -14 13 -22 23
-17 23 12 0 -31 46 -68 73 -16 11 -45 23 -65 27 -20 4 -43 10 -51 13 -8 3 -40
-2 -70 -11z"/>
<path d="M2576 631 c-10 -11 -28 -46 -41 -78 -30 -74 -21 -94 51 -106 50 -8
332 -1 358 9 28 11 27 42 -3 103 -37 73 -49 77 -227 85 -110 5 -123 4 -138
-13z m264 -47 c26 -6 58 -49 46 -62 -8 -7 -273 -8 -281 -1 -3 4 1 24 10 44
l15 38 91 -7 c50 -4 103 -9 119 -12z"/>
</g>
</svg>
